<?xml version="1.0" encoding="utf-8"?>
<!-- Generator: Adobe Illustrator 28.0.0, SVG Export Plug-In . SVG Version: 6.00 Build 0)  -->
<svg version="1.1" id="Layer_1" xmlns="http://www.w3.org/2000/svg"
	xmlns:xlink="http://www.w3.org/1999/xlink" x="0px" y="0px"
	viewBox="0 0 2000 808" style="enable-background:new 0 0 2000 808;" xml:space="preserve"
	fill="white">
<style type="text/css">
	.st0{fill:#FFFFFF;}
</style>
<g>
	<g>
		<path d="M724.17,470.08l-43.82-82.53c6.14-3.52,11.79-7.76,16.97-12.7c5.17-4.95,9.64-10.46,13.38-16.54
			c3.75-6.08,6.68-12.62,8.78-19.61c2.1-6.99,3.15-14.35,3.15-22.08c0-11.37-2.19-22.08-6.56-32.14
			c-4.38-10.06-10.37-18.84-17.99-26.34c-7.62-7.5-16.54-13.44-26.77-17.82c-10.23-4.37-21.2-6.56-32.91-6.56H528.26
			c-2.5,0-4.38,0.71-5.63,2.13c-1.25,1.42-1.88,3.33-1.88,5.71v238.03c0,2.5,0.68,4.35,2.05,5.54c1.36,1.19,3.18,1.79,5.46,1.79
			h50.64c5.23,0,7.84-2.44,7.84-7.33v-76.9h27.62l41.44,77.92c0.45,1.93,1.45,3.47,2.98,4.6c1.53,1.14,3.27,1.71,5.2,1.71h58.49
			c2.05,0,3.67-0.48,4.86-1.45c1.19-0.96,1.79-2.36,1.79-4.18c0-1.59-0.63-3.46-1.87-5.63
			C725.99,473.55,724.97,471.68,724.17,470.08z M652.56,327.96c-1.14,3.47-2.79,6.6-4.95,9.38c-2.16,2.79-4.83,5.12-8.01,6.99
			c-3.18,1.88-6.77,3.04-10.74,3.5c-1.94,0.23-3.69,0.4-5.28,0.51c-1.59,0.12-3.41,0.17-5.46,0.17h-31.38v-62.58h23.53
			c3.3,0,6.33,0.09,9.12,0.26c2.78,0.17,5.77,0.37,8.95,0.6c3.86,0.57,7.39,1.82,10.57,3.75c3.18,1.93,5.91,4.32,8.18,7.16
			c2.27,2.84,4.03,5.97,5.29,9.38c1.25,3.41,1.87,6.82,1.87,10.23C654.26,320.94,653.69,324.49,652.56,327.96z"/>
	</g>
	<g>
		<path d="M991.61,294.71c-5.63-9.72-12.43-18.55-20.39-26.51c-7.96-7.96-16.78-14.75-26.45-20.38c-9.67-5.63-20.08-10-31.23-13.13
			c-11.15-3.13-22.69-4.69-34.63-4.69c-12.06,0-23.63,1.56-34.73,4.69c-11.09,3.13-21.47,7.5-31.14,13.13
			c-9.67,5.63-18.46,12.42-26.36,20.38c-7.91,7.96-14.7,16.79-20.39,26.51c-5.69,9.72-10.07,20.12-13.14,31.21
			c-3.07,11.08-4.61,22.65-4.61,34.7c0,12.05,1.54,23.61,4.61,34.7c3.07,11.08,7.45,21.43,13.14,31.03
			c5.69,9.61,12.48,18.36,20.39,26.26c7.9,7.9,16.69,14.69,26.36,20.37c9.67,5.69,20.05,10.06,31.14,13.13
			c11.09,3.07,22.66,4.61,34.73,4.61c11.94,0,23.49-1.54,34.63-4.61c11.15-3.07,21.56-7.44,31.23-13.13
			c9.67-5.68,18.48-12.47,26.45-20.37c7.96-7.9,14.76-16.65,20.39-26.26c5.63-9.6,10.01-19.95,13.14-31.03
			c3.13-11.08,4.69-22.65,4.69-34.7c0-12.05-1.56-23.62-4.69-34.7C1001.62,314.83,997.24,304.43,991.61,294.71z M938.68,386.87
			c-3.18,8.19-7.63,15.32-13.37,21.4c-5.73,6.08-12.55,10.86-20.43,14.32c-7.89,3.47-16.55,5.2-25.97,5.2
			c-9.42,0-18.05-1.73-25.88-5.2c-7.83-3.47-14.62-8.24-20.35-14.32c-5.73-6.08-10.19-13.21-13.37-21.4
			c-3.18-8.18-4.77-16.99-4.77-26.43c0-9.32,1.59-18.1,4.77-26.35c3.18-8.24,7.64-15.43,13.37-21.57
			c5.73-6.14,12.52-10.97,20.35-14.49c7.83-3.52,16.46-5.28,25.88-5.28c9.42,0,18.08,1.76,25.97,5.28
			c7.89,3.52,14.7,8.36,20.43,14.49c5.73,6.14,10.19,13.33,13.37,21.57c3.18,8.24,4.77,17.02,4.77,26.35
			C943.45,369.88,941.86,378.69,938.68,386.87z"/>
	</g>
	<g>
		<path d="M1199.9,356.09c-7.39-5.97-16.17-11.14-26.34-15.51s-21.29-8.55-33.33-12.53c-6.25-2.05-11.74-3.95-16.46-5.71
			c-4.72-1.76-8.67-3.63-11.85-5.62c-3.18-1.99-5.57-4.15-7.16-6.48c-1.59-2.33-2.39-5.09-2.39-8.27c0-3.18,0.74-5.88,2.22-8.1
			c1.48-2.22,3.47-4.01,5.97-5.37c2.5-1.36,5.4-2.36,8.7-2.98c3.3-0.62,6.82-0.94,10.57-0.94c3.64,0,7.22,0.54,10.74,1.62
			c3.52,1.08,6.88,2.45,10.06,4.09c3.18,1.65,6.16,3.49,8.95,5.54c2.79,2.05,5.31,4.04,7.59,5.97l1.54,1.36
			c1.59,1.36,3.04,2.5,4.35,3.41c1.31,0.91,2.76,1.36,4.35,1.36c1.93,0,3.86-0.96,5.8-2.9l26.09-27.79
			c1.48-1.59,2.58-3.01,3.33-4.26c0.74-1.25,1.11-2.61,1.11-4.09c0-1.48-0.77-3.24-2.3-5.28c-1.53-2.05-3.61-4.2-6.22-6.48
			c-2.62-2.27-5.66-4.63-9.12-7.08c-3.47-2.44-7.13-4.8-11-7.08c-9.21-5.12-18.56-8.84-28.05-11.17c-9.49-2.33-19.41-3.5-29.75-3.5
			c-13.76,0-26.21,1.68-37.34,5.03c-11.14,3.35-20.66,8.09-28.56,14.22c-7.9,6.13-13.98,13.52-18.24,22.15
			c-4.26,8.63-6.39,18.23-6.39,28.79c0,10,1.71,19.06,5.12,27.18c3.41,8.12,8.53,15.56,15.35,22.32
			c6.82,6.76,15.35,12.89,25.58,18.4s22.17,10.65,35.81,15.42c3.07,1.02,6.71,2.3,10.91,3.83c4.2,1.54,8.24,3.38,12.1,5.54
			c3.86,2.16,7.13,4.63,9.8,7.41c2.67,2.78,4.01,5.93,4.01,9.45c0,3.18-0.49,6.19-1.45,9.03c-0.97,2.84-2.59,5.34-4.86,7.49
			c-2.27,2.16-5.37,3.89-9.29,5.2c-3.92,1.31-8.78,1.96-14.58,1.96c-6.25,0-12.22-1.08-17.9-3.24c-5.68-2.16-11.42-5.17-17.22-9.04
			c-3.87-2.61-7.31-5.26-10.32-7.93c-3.01-2.67-5.49-4.8-7.42-6.39c-1.59-1.37-2.96-2.39-4.09-3.07c-1.14-0.68-2.22-1.02-3.24-1.02
			c-1.48,0-3.41,0.85-5.8,2.56l-29.5,28.13c-2.62,2.39-3.92,4.56-3.92,6.5c0,1.71,1.31,3.99,3.92,6.84c0.11,0.12,0.22,0.2,0.34,0.26
			c0.11,0.06,0.23,0.2,0.34,0.43c0.11,0.12,0.23,0.2,0.34,0.26c0.11,0.06,0.23,0.2,0.34,0.43l0.51,0.51
			c1.82,1.94,4.29,4.5,7.42,7.69c3.12,3.19,6.96,6.44,11.51,9.75c10.91,7.87,22.68,14.14,35.29,18.81
			c12.62,4.67,25.46,7.01,38.53,7.01c13.87,0,26.83-1.96,38.88-5.88c12.05-3.92,22.54-9.46,31.46-16.63
			c8.92-7.16,15.94-15.83,21.06-26c5.11-10.17,7.67-21.51,7.67-34.02c0-11.82-2.08-21.88-6.22-30.18
			C1213.06,369.2,1207.29,362.06,1199.9,356.09z"/>
	</g>
	<g>
		<path d="M1440.92,377.5c-4.15-8.3-9.92-15.43-17.31-21.4c-7.39-5.97-16.17-11.14-26.34-15.51c-10.17-4.38-21.29-8.55-33.33-12.53
			c-6.25-2.05-11.74-3.95-16.46-5.71c-4.72-1.76-8.67-3.63-11.85-5.62c-3.18-1.99-5.57-4.15-7.16-6.48
			c-1.59-2.33-2.39-5.09-2.39-8.27c0-3.18,0.74-5.88,2.22-8.1c1.48-2.22,3.47-4.01,5.97-5.37c2.5-1.36,5.4-2.36,8.69-2.98
			c3.3-0.62,6.82-0.94,10.57-0.94c3.64,0,7.22,0.54,10.74,1.62c3.52,1.08,6.88,2.45,10.06,4.09c3.18,1.65,6.16,3.49,8.95,5.54
			c2.79,2.05,5.31,4.04,7.59,5.97l1.54,1.36c1.59,1.36,3.04,2.5,4.35,3.41c1.31,0.91,2.75,1.36,4.35,1.36c1.93,0,3.86-0.96,5.8-2.9
			l26.09-27.79c1.47-1.59,2.58-3.01,3.33-4.26c0.74-1.25,1.11-2.61,1.11-4.09c0-1.48-0.77-3.24-2.3-5.28
			c-1.53-2.05-3.61-4.2-6.22-6.48c-2.62-2.27-5.66-4.63-9.12-7.08c-3.47-2.44-7.13-4.8-11-7.08c-9.21-5.12-18.56-8.84-28.05-11.17
			c-9.49-2.33-19.41-3.5-29.75-3.5c-13.76,0-26.21,1.68-37.34,5.03c-11.14,3.35-20.66,8.09-28.56,14.22
			c-7.9,6.13-13.98,13.52-18.24,22.15c-4.26,8.63-6.39,18.23-6.39,28.79c0,10,1.7,19.06,5.11,27.18s8.53,15.56,15.35,22.32
			c6.82,6.76,15.35,12.89,25.58,18.4s22.17,10.65,35.81,15.42c3.07,1.02,6.71,2.3,10.91,3.83c4.2,1.54,8.24,3.38,12.1,5.54
			c3.86,2.16,7.13,4.63,9.81,7.41c2.67,2.78,4.01,5.93,4.01,9.45c0,3.18-0.49,6.19-1.45,9.03c-0.97,2.84-2.58,5.34-4.86,7.49
			c-2.27,2.16-5.37,3.89-9.29,5.2c-3.92,1.31-8.78,1.96-14.58,1.96c-6.25,0-12.22-1.08-17.9-3.24c-5.68-2.16-11.42-5.17-17.22-9.04
			c-3.87-2.61-7.31-5.26-10.32-7.93c-3.01-2.67-5.49-4.8-7.42-6.39c-1.59-1.37-2.96-2.39-4.09-3.07c-1.14-0.68-2.22-1.02-3.24-1.02
			c-1.48,0-3.41,0.85-5.8,2.56l-29.5,28.13c-2.62,2.39-3.92,4.56-3.92,6.5c0,1.71,1.31,3.99,3.92,6.84c0.11,0.12,0.22,0.2,0.34,0.26
			c0.11,0.06,0.23,0.2,0.34,0.43c0.11,0.12,0.23,0.2,0.34,0.26c0.11,0.06,0.23,0.2,0.34,0.43l0.51,0.51
			c1.82,1.94,4.29,4.5,7.42,7.69c3.12,3.19,6.96,6.44,11.51,9.75c10.91,7.87,22.68,14.14,35.29,18.81
			c12.62,4.67,25.46,7.01,38.53,7.01c13.87,0,26.83-1.96,38.88-5.88c12.05-3.92,22.54-9.46,31.46-16.63
			c8.92-7.16,15.94-15.83,21.06-26c5.12-10.17,7.67-21.51,7.67-34.02C1447.14,395.85,1445.06,385.79,1440.92,377.5z"/>
	</g>
	<g>
		<path d="M303.8,266.5c5.41-0.96,10.96-1.55,16.65-1.55s11.23,0.59,16.65,1.55c26.71,4.75,49.52,20.7,63.41,42.82
			c9.24,14.71,30.21,16.27,42.5,3.99l35.42-35.42l29.4-29.4l-76.36-76.36l-29.4,29.4c-24.46-12.67-52.17-19.94-81.62-19.94
			s-57.16,7.27-81.62,19.94l-29.39-29.39l-76.36,76.36l29.39,29.39c-12.67,24.46-19.94,52.17-19.94,81.62
			c0,29.45,7.27,57.16,19.94,81.62l-29.4,29.4l76.36,76.36l29.4-29.4c24.46,12.67,52.17,19.94,81.62,19.94s57.16-7.27,81.62-19.94
			l29.4,29.4l76.36-76.36l-29.4-29.4l-35.42-35.42c-12.28-12.28-33.26-10.72-42.5,3.99c-13.89,22.13-36.7,38.07-63.41,42.82
			c-5.41,0.96-10.96,1.55-16.65,1.55s-11.23-0.59-16.65-1.55c-38.86-6.92-69.45-37.5-76.36-76.36c-0.96-5.41-1.55-10.96-1.55-16.65
			c0-5.69,0.59-11.23,1.55-16.65C234.36,304,264.94,273.41,303.8,266.5z"/>
	</g>
</g>
<g>
	<polygon points="1802.11,405.7 1755.91,359.51 1837.53,277.89 1866.93,248.49 1790.57,172.13 1761.17,201.53 1696.2,266.5 
		1679.55,283.15 1662.9,266.5 1597.93,201.53 1568.54,172.13 1492.18,248.49 1521.57,277.89 1586.54,342.86 1603.19,359.51 
		1586.54,376.15 1521.57,441.12 1492.17,470.52 1568.53,546.88 1597.93,517.48 1662.9,452.51 1679.55,435.87 1696.2,452.51 
		1761.17,517.48 1790.57,546.88 1866.93,470.52 1837.53,441.12 	"/>
</g>
</svg>